<?xml version="1.0" standalone="no"?>
<!DOCTYPE svg PUBLIC "-//W3C//DTD SVG 20010904//EN"
 "http://www.w3.org/TR/2001/REC-SVG-20010904/DTD/svg10.dtd">
<svg version="1.0" xmlns="http://www.w3.org/2000/svg"
 width="176.000000pt" height="176.000000pt" viewBox="0 0 176.000000 176.000000"
 preserveAspectRatio="xMidYMid meet">

<g transform="translate(0.000000,176.000000) scale(0.100000,-0.100000)"
fill="#000000" stroke="none">
<path d="M663 1604 l-28 -25 33 22 c17 13 32 24 32 26 0 8 -11 1 -37 -23z"/>
<path d="M874 1592 c19 -22 19 -23 0 -37 -11 -8 -14 -15 -6 -15 21 0 26 -2 45
-11 11 -7 17 -6 17 1 0 6 5 8 12 4 7 -4 8 -3 4 5 -4 6 -2 18 4 26 9 11 9 15 1
15 -6 0 -11 7 -11 15 0 8 -7 15 -16 15 -14 0 -14 -3 -4 -15 22 -26 3 -28 -32
-4 -33 23 -33 23 -14 1z"/>
<path d="M835 1591 c3 -6 -3 -14 -12 -20 -10 -6 -13 -10 -8 -10 6 0 18 6 28
13 16 12 16 14 2 20 -9 3 -13 2 -10 -3z"/>
<path d="M1034 1571 c4 -5 0 -11 -6 -14 -7 -3 -3 -4 9 -4 17 1 19 4 11 14 -12
15 -22 18 -14 4z"/>
<path d="M964 1545 c11 -8 22 -12 25 -9 6 6 -19 24 -34 24 -5 -1 -1 -7 9 -15z"/>
<path d="M509 1408 c-7 -13 -18 -28 -25 -36 -29 -28 -43 -140 -25 -202 6 -22
10 -16 29 42 12 37 22 84 22 105 0 21 4 55 9 76 10 42 7 47 -10 15z"/>
<path d="M564 1388 c2 -7 -1 -21 -6 -30 -14 -28 -4 -21 22 15 13 17 17 26 8
19 -11 -9 -18 -9 -21 -2 -3 6 -4 5 -3 -2z"/>
<path d="M595 1360 c-16 -17 -16 -20 -3 -15 9 4 19 13 22 21 7 19 2 18 -19 -6z"/>
<path d="M1221 1284 c0 -11 3 -14 6 -6 3 7 2 16 -1 19 -3 4 -6 -2 -5 -13z"/>
<path d="M1241 1264 c0 -11 3 -14 6 -6 3 7 2 16 -1 19 -3 4 -6 -2 -5 -13z"/>
<path d="M1196 1247 c3 -10 9 -15 12 -12 3 3 0 11 -7 18 -10 9 -11 8 -5 -6z"/>
<path d="M1275 1165 c3 -54 8 -101 10 -103 2 -2 11 10 19 27 19 35 22 141 5
141 -7 0 -18 8 -26 18 -12 15 -13 4 -8 -83z"/>
<path d="M667 1093 c-13 -12 -7 -24 9 -21 10 2 19 -3 22 -11 3 -8 0 -11 -7 -7
-7 5 -11 -1 -11 -14 0 -18 3 -19 20 -10 14 8 20 8 20 0 0 -6 5 -8 11 -4 8 4 8
9 0 17 -16 16 -14 27 5 27 9 0 14 -6 11 -12 -2 -7 0 -22 6 -33 10 -19 11 -18
19 10 7 24 4 33 -13 48 -21 17 -79 24 -92 10z"/>
<path d="M973 1050 c-24 -10 -32 -22 -12 -17 6 1 14 -4 17 -12 3 -8 0 -11 -7
-7 -7 5 -11 -4 -10 -26 0 -18 3 -26 6 -18 9 22 26 30 40 18 9 -7 13 -7 13 1 0
6 -7 14 -15 17 -8 4 -12 10 -9 15 8 14 35 11 33 -3 -1 -7 1 -26 6 -42 8 -29 9
-29 16 -8 5 12 6 29 3 37 -4 8 -1 15 5 15 13 0 33 -35 24 -44 -3 -3 -2 -6 4
-6 6 0 13 9 16 21 3 12 3 18 0 15 -3 -3 -15 6 -26 20 -11 14 -26 23 -34 20 -8
-3 -11 -1 -8 4 8 12 -32 12 -62 0z"/>
<path d="M1131 744 c0 -11 3 -14 6 -6 3 7 2 16 -1 19 -3 4 -6 -2 -5 -13z"/>
<path d="M986 624 c-4 -9 -4 -19 -1 -22 2 -3 7 3 11 12 4 9 4 19 1 22 -2 3 -7
-3 -11 -12z"/>
<path d="M916 504 c-25 -22 -36 -25 -70 -21 -40 5 -41 5 -14 -9 20 -11 26 -21
26 -44 -1 -17 2 -33 5 -37 4 -3 7 5 7 18 0 31 15 55 24 40 4 -6 2 -11 -3 -11
-6 0 -11 -8 -11 -17 0 -15 2 -14 14 3 10 13 11 23 4 31 -7 8 0 21 24 42 18 17
31 30 28 30 -3 0 -18 -11 -34 -25z"/>
<path d="M630 499 c0 -5 5 -7 10 -4 6 3 10 8 10 11 0 2 -4 4 -10 4 -5 0 -10
-5 -10 -11z"/>
<path d="M770 427 c0 -2 15 -16 33 -33 l32 -29 -29 33 c-28 30 -36 37 -36 29z"/>
<path d="M1102 300 c0 -14 2 -19 5 -12 2 6 2 18 0 25 -3 6 -5 1 -5 -13z"/>
<path d="M1224 304 c6 -15 5 -17 -5 -6 -7 6 -19 12 -26 12 -10 0 -10 -6 -1
-27 7 -16 12 -29 13 -29 0 -1 11 -5 23 -9 21 -6 23 -5 13 13 -6 11 -8 27 -5
35 3 8 0 18 -7 23 -9 5 -10 2 -5 -12z"/>
<path d="M1258 308 c7 -7 17 -13 22 -13 5 0 16 -9 24 -20 15 -20 15 -20 16 2
0 25 -3 27 -45 37 -25 6 -28 5 -17 -6z"/>
<path d="M1003 303 c-22 -8 -15 -50 9 -56 28 -8 28 -8 14 29 -6 17 -16 29 -23
27z"/>
<path d="M1036 295 c4 -8 10 -12 15 -9 5 3 9 0 9 -7 0 -8 4 -8 15 1 23 19 18
30 -15 30 -22 0 -28 -4 -24 -15z"/>
<path d="M925 290 c3 -5 10 -10 16 -10 5 0 9 5 9 10 0 6 -7 10 -16 10 -8 0
-12 -4 -9 -10z"/>
<path d="M826 282 c-2 -4 -1 -14 5 -22 7 -12 9 -10 9 8 0 23 -5 28 -14 14z"/>
<path d="M860 273 c0 -10 -3 -28 -6 -40 -4 -14 -2 -23 5 -23 6 0 11 9 11 19 0
31 21 36 42 10 17 -20 19 -21 13 -4 -4 11 -10 28 -12 38 -3 10 -15 17 -29 17
-16 0 -24 -6 -24 -17z"/>
<path d="M764 272 c-6 -4 -14 -24 -18 -44 -4 -21 -11 -38 -16 -38 -5 0 -7 -7
-4 -15 4 -8 10 -12 15 -9 5 3 7 9 4 14 -3 5 4 19 16 31 13 13 23 33 24 46 1
24 -3 27 -21 15z"/>
<path d="M1336 265 c-4 -11 -12 -14 -26 -10 -14 5 -20 2 -20 -9 0 -23 37 -20
50 5 7 11 10 23 7 25 -2 3 -7 -2 -11 -11z"/>
<path d="M683 263 c-13 -3 -23 -12 -23 -21 0 -15 2 -15 10 -2 7 11 10 11 10 2
0 -7 4 -11 9 -8 5 4 12 0 14 -6 3 -7 6 -4 6 7 1 17 3 17 11 5 8 -12 10 -11 10
8 0 22 -4 23 -47 15z"/>
<path d="M1130 259 c0 -5 5 -7 10 -4 6 3 10 8 10 11 0 2 -4 4 -10 4 -5 0 -10
-5 -10 -11z"/>
<path d="M500 225 c0 -9 -4 -14 -9 -11 -4 3 -17 -1 -27 -9 -15 -11 -17 -16 -6
-27 10 -10 14 -8 19 11 3 12 9 18 12 12 4 -6 11 -3 19 9 7 12 8 21 2 25 -6 3
-10 -1 -10 -10z"/>
<path d="M544 198 c2 -15 0 -28 -5 -28 -6 0 -7 -5 -4 -10 4 -6 12 -4 21 5 9 8
18 15 22 15 4 0 7 11 7 25 0 19 -5 24 -23 22 -19 -1 -22 -6 -18 -29z"/>
<path d="M943 213 c-3 -10 -8 -22 -11 -27 -3 -5 0 -6 5 -3 11 7 25 47 17 47
-3 0 -7 -8 -11 -17z"/>
<path d="M1040 221 c0 -6 5 -13 10 -16 6 -3 10 1 10 9 0 9 -4 16 -10 16 -5 0
-10 -4 -10 -9z"/>
<path d="M1334 204 c12 -46 23 -47 28 -4 2 17 -3 25 -16 28 -16 3 -18 0 -12
-24z"/>
<path d="M630 200 c0 -5 5 -10 10 -10 6 0 10 5 10 10 0 6 -4 10 -10 10 -5 0
-10 -4 -10 -10z"/>
<path d="M830 200 c0 -5 5 -10 11 -10 5 0 7 5 4 10 -3 6 -8 10 -11 10 -2 0 -4
-4 -4 -10z"/>
<path d="M439 147 c5 -14 4 -25 -5 -32 -10 -8 -8 -17 7 -45 l19 -35 0 46 c0
38 4 48 20 52 14 4 18 10 14 22 -5 13 -8 14 -15 3 -7 -10 -12 -11 -28 -1 -18
12 -20 11 -12 -10z"/>
</g>
</svg>
